<?xml version="1.0" encoding="UTF-8" standalone="no"?>
<svg
   xmlns:dc="http://purl.org/dc/elements/1.1/"
   xmlns:cc="http://creativecommons.org/ns#"
   xmlns:rdf="http://www.w3.org/1999/02/22-rdf-syntax-ns#"
   xmlns:svg="http://www.w3.org/2000/svg"
   xmlns="http://www.w3.org/2000/svg"
   xmlns:sodipodi="http://sodipodi.sourceforge.net/DTD/sodipodi-0.dtd"
   xmlns:inkscape="http://www.inkscape.org/namespaces/inkscape"
   width="48pt"
   height="48pt"
   viewBox="0 0 48 48"
   version="1.1"
   id="svg32"
   sodipodi:docname="icon_48.svg"
   inkscape:version="1.0.2 (e86c870879, 2021-01-15)"
   inkscape:export-filename="/home/orschiro/Downloads/AltQ/assets/icon_300.png"
   inkscape:export-xdpi="450"
   inkscape:export-ydpi="450">
  <metadata
     id="metadata38">
    <rdf:RDF>
      <cc:Work
         rdf:about="">
        <dc:format>image/svg+xml</dc:format>
        <dc:type
           rdf:resource="http://purl.org/dc/dcmitype/StillImage" />
      </cc:Work>
    </rdf:RDF>
  </metadata>
  <defs
     id="defs36" />
  <sodipodi:namedview
     pagecolor="#ffffff"
     bordercolor="#666666"
     borderopacity="1"
     objecttolerance="10"
     gridtolerance="10"
     guidetolerance="10"
     inkscape:pageopacity="0"
     inkscape:pageshadow="2"
     inkscape:window-width="1360"
     inkscape:window-height="701"
     id="namedview34"
     showgrid="false"
     inkscape:zoom="3.7390283"
     inkscape:cx="-21.738828"
     inkscape:cy="37.781901"
     inkscape:window-x="0"
     inkscape:window-y="30"
     inkscape:window-maximized="1"
     inkscape:current-layer="svg32" />
  <path
     fill="#967775"
     d=" M 6.86 19.27 C 5.75 7.62 18.91 -2.81 29.88 1.56 C 36.28 3.52 40.89 9.41 42.24 15.84 C 43.84 16.05 45.45 16.17 47.05 16.45 C 45.24 18.99 42.72 20.94 40.05 22.51 C 36.82 21.62 34.09 19.40 31.29 17.61 C 30.56 15.12 34.43 16.53 35.72 15.90 C 34.89 8.70 26.25 4.66 19.99 7.89 C 15.72 9.77 14.07 14.64 13.90 18.98 C 11.55 19.01 9.20 19.11 6.86 19.27 Z"
     id="path4" />
  <path
     fill="#ff4e44"
     d=" M 21.33 2.41 C 29.37 0.65 38.15 5.85 40.31 13.80 C 40.92 15.53 40.66 17.88 42.69 18.67 C 41.81 19.40 40.92 20.14 40.03 20.87 C 38.84 20.19 37.65 19.52 36.46 18.82 C 38.75 10.84 29.38 3.65 21.97 5.85 C 16.47 7.13 12.88 12.52 12.75 18.01 C 11.16 17.97 9.56 17.92 7.97 17.88 C 8.47 10.53 13.84 3.53 21.33 2.41 Z"
     id="path6" />
  <path
     fill="#b5bec5"
     d=" M 1.91 28.82 C 2.65 26.83 3.99 24.84 6.04 24.05 C 10.13 23.51 14.39 23.56 18.35 24.82 C 14.27 26.64 9.65 23.65 5.53 25.55 C 3.48 27.71 3.16 30.84 2.49 33.60 C 2.17 32.03 1.97 30.43 1.91 28.82 Z"
     id="path8" />
  <path
     fill="#687c98"
     d=" M 20.09 24.80 C 23.43 23.45 27.08 23.90 30.51 24.57 C 27.06 25.06 23.57 25.08 20.09 24.80 Z"
     id="path10" />
  <path
     fill="#b8c4d3"
     d=" M 30.51 24.57 C 32.75 24.56 34.98 24.45 37.20 24.17 L 36.53 24.85 C 36.86 30.76 34.97 37.45 38.30 42.73 C 43.20 44.57 45.72 39.02 48.00 35.79 L 48.00 43.71 C 41.98 44.34 35.97 43.18 29.95 43.76 C 26.81 44.01 23.66 43.61 20.60 42.91 C 20.35 42.53 19.85 41.79 19.61 41.42 C 18.98 37.65 18.51 33.85 17.66 30.13 C 18.35 31.41 19.07 32.67 19.79 33.93 C 19.98 31.37 20.33 28.72 19.34 26.27 C 19.26 25.97 19.11 25.39 19.04 25.10 C 19.30 25.02 19.83 24.87 20.09 24.80 C 23.57 25.08 27.06 25.06 30.51 24.57 Z"
     id="path12" />
  <path
     fill="#aab5b3"
     d=" M 37.20 24.17 C 40.98 23.70 46.07 22.91 48.00 27.16 L 48.00 32.64 C 46.50 30.45 45.74 27.88 44.48 25.57 C 42.06 24.42 39.14 25.06 36.53 24.85 L 37.20 24.17 Z"
     id="path14" />
  <path
     fill="#f5f8fd"
     d=" M 5.53 25.55 C 9.65 23.65 14.27 26.64 18.35 24.82 C 18.20 25.18 17.91 25.91 17.76 26.27 C 16.81 27.48 17.06 28.84 17.66 30.13 C 18.51 33.85 18.98 37.65 19.61 41.42 C 19.85 41.79 20.35 42.53 20.60 42.91 C 21.37 44.21 22.20 45.73 23.99 45.41 C 31.99 45.41 40.02 45.78 48.00 45.11 L 48.00 48.00 L 0.00 48.00 L 0.00 41.84 C 2.08 39.58 2.28 36.51 2.49 33.60 C 3.16 30.84 3.48 27.71 5.53 25.55 Z"
     id="path16" />
  <path
     fill="#c4ced8"
     d=" M 36.53 24.85 C 39.14 25.06 42.06 24.42 44.48 25.57 C 45.74 27.88 46.50 30.45 48.00 32.64 L 48.00 35.79 C 45.72 39.02 43.20 44.57 38.30 42.73 C 34.97 37.45 36.86 30.76 36.53 24.85 Z"
     id="path18" />
  <path
     fill="#9aa6b7"
     d=" M 17.66 30.13 C 17.06 28.84 16.81 27.48 17.76 26.27 L 19.34 26.27 C 20.33 28.72 19.98 31.37 19.79 33.93 C 19.07 32.67 18.35 31.41 17.66 30.13 Z"
     id="path20" />
  <path
     fill="#d8dee3"
     d=" M 0.00 34.57 C 0.59 32.64 1.22 30.72 1.91 28.82 C 1.97 30.43 2.17 32.03 2.49 33.60 C 2.28 36.51 2.08 39.58 0.00 41.84 L 0.00 40.07 C 1.60 39.26 1.60 38.67 0.00 38.31 L 0.00 34.57 Z"
     id="path22" />
  <path
     fill="#d3d4d7"
     d=" M 10.24 33.33 C 11.51 32.91 12.79 32.49 14.06 32.06 C 13.50 34.13 13.67 36.26 14.12 38.33 C 11.70 37.69 10.40 35.76 10.24 33.33 Z"
     id="path24" />
  <path
     fill="#a2abb6"
     d=" M 20.23 36.47 C 21.54 36.94 22.43 40.23 20.90 40.96 C 19.24 40.35 19.07 37.62 20.23 36.47 Z"
     id="path26" />
  <path
     fill="#aab5c0"
     d=" M 0.00 38.31 C 1.60 38.67 1.60 39.26 0.00 40.07 L 0.00 38.31 Z"
     id="path28" />
  <path
     fill="#9fa7b1"
     d=" M 20.60 42.91 C 23.66 43.61 26.81 44.01 29.95 43.76 C 35.97 43.18 41.98 44.34 48.00 43.71 L 48.00 45.11 C 40.02 45.78 31.99 45.41 23.99 45.41 C 22.20 45.73 21.37 44.21 20.60 42.91 Z"
     id="path30" />
</svg>
