<?xml version="1.0" encoding="UTF-8" standalone="no"?>
<svg
   xmlns:dc="http://purl.org/dc/elements/1.1/"
   xmlns:cc="http://creativecommons.org/ns#"
   xmlns:rdf="http://www.w3.org/1999/02/22-rdf-syntax-ns#"
   xmlns:svg="http://www.w3.org/2000/svg"
   xmlns="http://www.w3.org/2000/svg"
   xmlns:sodipodi="http://sodipodi.sourceforge.net/DTD/sodipodi-0.dtd"
   xmlns:inkscape="http://www.inkscape.org/namespaces/inkscape"
   version="1.1"
   viewBox="0 0 920 280"
   id="svg51"
   sodipodi:docname="small-promo-tile.svg"
   inkscape:version="1.0.2 (e86c870879, 2021-01-15)"
   width="920"
   height="280"
   inkscape:export-filename="/home/orschiro/Downloads/AltQ/assets/small-promo-tile_440x280.png"
   inkscape:export-xdpi="96"
   inkscape:export-ydpi="96">
  <metadata
     id="metadata55">
    <rdf:RDF>
      <cc:Work
         rdf:about="">
        <dc:format>image/svg+xml</dc:format>
        <dc:type
           rdf:resource="http://purl.org/dc/dcmitype/StillImage" />
        <dc:title></dc:title>
      </cc:Work>
    </rdf:RDF>
  </metadata>
  <sodipodi:namedview
     pagecolor="#ffffff"
     bordercolor="#666666"
     borderopacity="1"
     objecttolerance="10"
     gridtolerance="10"
     guidetolerance="10"
     inkscape:pageopacity="0"
     inkscape:pageshadow="2"
     inkscape:window-width="1360"
     inkscape:window-height="701"
     id="namedview53"
     showgrid="false"
     inkscape:zoom="0.95799201"
     inkscape:cx="190.58879"
     inkscape:cy="175.54005"
     inkscape:window-x="0"
     inkscape:window-y="30"
     inkscape:window-maximized="1"
     inkscape:current-layer="svg51" />
  <defs
     id="defs7">
    <linearGradient
       id="a"
       x1="750"
       x2="0"
       y1="552.35999"
       y2="1052.4"
       gradientUnits="userSpaceOnUse">
      <stop
         stop-color="#909090"
         offset="0"
         id="stop2" />
      <stop
         stop-color="#8d97dd"
         offset="1"
         id="stop4" />
    </linearGradient>
  </defs>
  <rect
     x="0.38940352"
     y="1.9666141"
     width="674.58032"
     height="473.27197"
     ry="2.6044269"
     color="#000000"
     fill="#eaeaea"
     id="rect13"
     style="stroke-width:1.04073" />
  <path
     d="m 429.15038,14.348143 7.27597,23.265539 c 0.18189,0.581684 -0.49065,1.100173 -1.10016,1.100173 H 292.00725 c -0.60948,0 -1.10015,-0.49067 -1.10015,-1.100173 l 7.27597,-23.265539 z"
     color="#000000"
     fill="#e0e0e0"
     id="path15"
     style="stroke-width:1.04073" />
  <path
     d="m 290.91023,14.348143 7.27596,23.265539 c 0.1819,0.581684 -0.49067,1.100173 -1.10016,1.100173 H 153.76709 c -0.60947,0 -1.10016,-0.49067 -1.10016,-1.100173 l 7.27596,-23.265539 z"
     color="#000000"
     fill="#e0e0e0"
     id="path17"
     style="stroke-width:1.04073" />
  <g
     transform="matrix(1.0407299,0,0,1.0407299,-53.659871,-63.133131)"
     id="g27">
    <path
       d="m 198.25,74.449 6.9912,22.355 c 0.0874,0.27946 -0.0305,0.54373 -0.24338,0.73814 -0.21292,0.1944 -0.52089,0.31894 -0.81371,0.31894 l -68.855,3.7076 -68.855,-3.7076 C 66.18172,97.84534 65.91703,97.74322 65.72596,97.55215 65.53489,97.36108 65.33361,97.07073 65.41703,96.804 l 6.9912,-22.355 z"
       color="#000000"
       fill="#ffffff"
       id="path19" />
    <circle
       transform="matrix(1.0783,0,0,1.0783,36.781,-77.143)"
       cx="139.32001"
       cy="151.44"
       r="6.9912"
       color="#000000"
       fill="#ebebeb"
       id="circle21" />
    <path
       d="m 189.53,83.642 -5.0257,5.0257"
       fill="#ffffff"
       stroke="#ffffff"
       stroke-linecap="round"
       stroke-linejoin="round"
       stroke-width="1.0594px"
       id="path23" />
    <path
       d="m 184.5,83.642 5.0257,5.0257"
       fill="#ffffff"
       stroke="#ffffff"
       stroke-linecap="round"
       stroke-linejoin="round"
       stroke-width="1.0594px"
       id="path25" />
  </g>
  <circle
     cx="279.21246"
     cy="26.530956"
     r="7.8456469"
     color="#000000"
     fill="#ebebeb"
     id="circle29"
     style="stroke-width:1.04073" />
  <path
     d="m 281.82466,23.915602 -5.2304,5.230372"
     fill="#ffffff"
     stroke="#ffffff"
     stroke-linecap="round"
     stroke-linejoin="round"
     stroke-width="1.10255px"
     id="path31" />
  <path
     d="m 276.60019,23.915602 5.23041,5.230372"
     fill="#ffffff"
     stroke="#ffffff"
     stroke-linecap="round"
     stroke-linejoin="round"
     stroke-width="1.10255px"
     id="path33" />
  <circle
     cx="417.45255"
     cy="26.530956"
     r="7.8456469"
     color="#000000"
     fill="#ebebeb"
     id="circle35"
     style="stroke-width:1.04073" />
  <path
     d="m 420.07521,23.915602 -5.23039,5.230372"
     fill="#ffffff"
     stroke="#ffffff"
     stroke-linecap="round"
     stroke-linejoin="round"
     stroke-width="1.10255px"
     id="path37" />
  <path
     d="m 414.84035,23.915602 5.2304,5.230372"
     fill="#ffffff"
     stroke="#ffffff"
     stroke-linecap="round"
     stroke-linejoin="round"
     stroke-width="1.10255px"
     id="path39" />
  <rect
     x="4.4961162"
     y="38.713757"
     width="666.31689"
     height="432.37128"
     ry="0.84998506"
     color="#000000"
     fill="#ffffff"
     id="rect41"
     style="stroke-width:1.04073" />
  <g
     transform="matrix(1.0407299,0,0,1.0407299,-19.359481,-61.65115)"
     id="g49">
    <circle
       transform="matrix(1.2414,0,0,1.2414,-182.36,-15.762)"
       cx="658.78998"
       cy="76.160004"
       r="3.6204"
       color="#000000"
       fill="#fffde3"
       id="circle43" />
    <circle
       transform="matrix(1.2414,0,0,1.2414,-169.38,-15.762)"
       cx="658.78998"
       cy="76.160004"
       r="3.6204"
       color="#000000"
       fill="#ffbcbc"
       id="circle45" />
    <circle
       transform="matrix(1.2414,0,0,1.2414,-195.35,-15.762)"
       cx="658.78998"
       cy="76.160004"
       r="3.6204"
       color="#000000"
       fill="#b4b4b4"
       id="circle47" />
  </g>
  <g
     id="g147"
     transform="matrix(3.7186064,0,0,3.7186064,-455.2752,-247.56072)">
    <g
       id="g142"
       transform="matrix(1.3333333,0,0,1.3333333,-405.48778,-142.36209)">
      <path
         fill="#967775"
         d="m 423.89034,169.61556 c -1.11,11.65 12.05,22.08 23.02,17.71 6.4,-1.96 11.01,-7.85 12.36,-14.28 1.6,-0.21 3.21,-0.33 4.81,-0.61 -1.81,-2.54 -4.33,-4.49 -7,-6.06 -3.23,0.89 -5.96,3.11 -8.76,4.9 -0.73,2.49 3.14,1.08 4.43,1.71 -0.83,7.2 -9.47,11.24 -15.73,8.01 -4.27,-1.88 -5.92,-6.75 -6.09,-11.09 -2.35,-0.03 -4.7,-0.13 -7.04,-0.29 z"
         id="path4" />
      <path
         fill="#ff4e44"
         d="m 438.36034,186.47556 c 8.04,1.76 16.82,-3.44 18.98,-11.39 0.61,-1.73 0.35,-4.08 2.38,-4.87 -0.88,-0.73 -1.77,-1.47 -2.66,-2.2 -1.19,0.68 -2.38,1.35 -3.57,2.05 2.29,7.98 -7.08,15.17 -14.49,12.97 -5.5,-1.28 -9.09,-6.67 -9.22,-12.16 -1.59,0.04 -3.19,0.09 -4.78,0.13 0.5,7.35 5.87,14.35 13.36,15.47 z"
         id="path6" />
    </g>
  </g>
</svg>
